<svg xmlns="http://www.w3.org/2000/svg" viewBox="0 0 800 600" width="800" height="600">
  <!-- Background wall -->
  <rect x="0" y="0" width="800" height="600" fill="#f5f5f5"/>
  
  <!-- Floor -->
  <rect x="0" y="500" width="800" height="100" fill="#e0e0e0"/>
  
  <!-- Left wall -->
  <polygon points="0,0 0,500 100,400 100,100" fill="#ebebeb"/>
  
  <!-- Right wall -->
  <polygon points="800,0 800,500 700,400 700,100" fill="#ebebeb"/>
  
  <!-- Ceiling -->
  <polygon points="100,100 700,100 800,0 0,0" fill="#f0f0f0"/>
  
  <!-- Artwork 1 - Abstract -->
  <rect x="150" y="150" width="150" height="200" fill="#ffffff" stroke="#333333" stroke-width="5"/>
  <circle cx="225" cy="250" r="50" fill="#ff5722"/>
  <rect x="200" y="200" width="50" height="50" fill="#2196f3"/>
  <polygon points="175,175 275,175 225,225" fill="#4caf50"/>
  
  <!-- Artwork 2 - Portrait -->
  <rect x="350" y="150" width="150" height="200" fill="#ffffff" stroke="#333333" stroke-width="5"/>
  <ellipse cx="425" cy="200" rx="30" ry="40" fill="#ffcc80"/>
  <rect x="395" y="240" width="60" height="80" fill="#3f51b5"/>
  
  <!-- Artwork 3 - Landscape -->
  <rect x="550" y="150" width="150" height="200" fill="#ffffff" stroke="#333333" stroke-width="5"/>
  <rect x="550" y="250" width="150" height="50" fill="#4caf50"/>
  <circle cx="600" cy="200" r="30" fill="#ffeb3b"/>
  <polygon points="650,250 700,250 675,200" fill="#795548"/>
  
  <!-- Gallery bench -->
  <rect x="300" y="450" width="200" height="20" fill="#9e9e9e"/>
  <rect x="320" y="470" width="20" height="30" fill="#757575"/>
  <rect x="460" y="470" width="20" height="30" fill="#757575"/>
  
  <!-- Gallery spotlights -->
  <ellipse cx="225" cy="100" rx="10" ry="5" fill="#fdd835"/>
  <ellipse cx="425" cy="100" rx="10" ry="5" fill="#fdd835"/>
  <ellipse cx="625" cy="100" rx="10" ry="5" fill="#fdd835"/>
  
  <!-- Light beams -->
  <polygon points="225,100 175,150 275,150" fill="#fff59d" opacity="0.3"/>
  <polygon points="425,100 375,150 475,150" fill="#fff59d" opacity="0.3"/>
  <polygon points="625,100 575,150 675,150" fill="#fff59d" opacity="0.3"/>
  
  <!-- Person silhouette -->
  <circle cx="400" cy="430" r="15" fill="#424242"/>
  <rect x="395" y="445" width="10" height="30" fill="#424242"/>
  <line x1="395" y1="455" x2="380" y2="470" stroke="#424242" stroke-width="5"/>
  <line x1="405" y1="455" x2="420" y2="470" stroke="#424242" stroke-width="5"/>
  <line x1="400" y1="475" x2="390" y2="500" stroke="#424242" stroke-width="5"/>
  <line x1="400" y1="475" x2="410" y2="500" stroke="#424242" stroke-width="5"/>
</svg>