<svg width="192" height="192" viewBox="0 0 192 192" fill="none" xmlns="http://www.w3.org/2000/svg">
  <defs>
    <linearGradient id="bgGradient" x1="0%" y1="0%" x2="100%" y2="100%">
      <stop offset="0%" style="stop-color:#3b82f6;stop-opacity:1" />
      <stop offset="50%" style="stop-color:#8b5cf6;stop-opacity:1" />
      <stop offset="100%" style="stop-color:#f59e0b;stop-opacity:1" />
    </linearGradient>
    <linearGradient id="iconGradient" x1="0%" y1="0%" x2="100%" y2="100%">
      <stop offset="0%" style="stop-color:#ffffff;stop-opacity:1" />
      <stop offset="100%" style="stop-color:#f1f5f9;stop-opacity:1" />
    </linearGradient>
  </defs>
  
  <!-- Background -->
  <rect width="192" height="192" rx="32" fill="url(#bgGradient)"/>
  
  <!-- Glow effect -->
  <rect width="192" height="192" rx="32" fill="url(#bgGradient)" opacity="0.3" filter="blur(8px)"/>
  
  <!-- Main icon - Building/Directory symbol -->
  <g transform="translate(48, 48)">
    <!-- Building base -->
    <rect x="20" y="40" width="56" height="56" rx="8" fill="url(#iconGradient)" opacity="0.9"/>
    
    <!-- Building details -->
    <rect x="28" y="48" width="8" height="8" rx="2" fill="#3b82f6" opacity="0.7"/>
    <rect x="40" y="48" width="8" height="8" rx="2" fill="#3b82f6" opacity="0.7"/>
    <rect x="52" y="48" width="8" height="8" rx="2" fill="#3b82f6" opacity="0.7"/>
    <rect x="64" y="48" width="8" height="8" rx="2" fill="#3b82f6" opacity="0.7"/>
    
    <rect x="28" y="60" width="8" height="8" rx="2" fill="#8b5cf6" opacity="0.7"/>
    <rect x="40" y="60" width="8" height="8" rx="2" fill="#8b5cf6" opacity="0.7"/>
    <rect x="52" y="60" width="8" height="8" rx="2" fill="#8b5cf6" opacity="0.7"/>
    <rect x="64" y="60" width="8" height="8" rx="2" fill="#8b5cf6" opacity="0.7"/>
    
    <rect x="28" y="72" width="8" height="8" rx="2" fill="#f59e0b" opacity="0.7"/>
    <rect x="40" y="72" width="8" height="8" rx="2" fill="#f59e0b" opacity="0.7"/>
    <rect x="52" y="72" width="8" height="8" rx="2" fill="#f59e0b" opacity="0.7"/>
    <rect x="64" y="72" width="8" height="8" rx="2" fill="#f59e0b" opacity="0.7"/>
    
    <!-- Premium star -->
    <path d="M48 20 L52 32 L64 32 L54 40 L58 52 L48 44 L38 52 L42 40 L32 32 L44 32 Z" fill="#fbbf24" stroke="#f59e0b" stroke-width="2"/>
  </g>
  
  <!-- Decorative elements -->
  <circle cx="32" cy="32" r="4" fill="#ffffff" opacity="0.3"/>
  <circle cx="160" cy="160" r="6" fill="#ffffff" opacity="0.2"/>
  <circle cx="160" cy="32" r="3" fill="#ffffff" opacity="0.4"/>
  <circle cx="32" cy="160" r="5" fill="#ffffff" opacity="0.25"/>
</svg>