<svg width="512" height="512" viewBox="0 0 512 512" fill="none" xmlns="http://www.w3.org/2000/svg">
  <defs>
    <linearGradient id="bgGradient" x1="0%" y1="0%" x2="100%" y2="100%">
      <stop offset="0%" style="stop-color:#3b82f6;stop-opacity:1" />
      <stop offset="50%" style="stop-color:#8b5cf6;stop-opacity:1" />
      <stop offset="100%" style="stop-color:#f59e0b;stop-opacity:1" />
    </linearGradient>
    <linearGradient id="iconGradient" x1="0%" y1="0%" x2="100%" y2="100%">
      <stop offset="0%" style="stop-color:#ffffff;stop-opacity:1" />
      <stop offset="100%" style="stop-color:#f1f5f9;stop-opacity:1" />
    </linearGradient>
  </defs>
  
  <!-- Background -->
  <rect width="512" height="512" rx="80" fill="url(#bgGradient)"/>
  
  <!-- Glow effect -->
  <rect width="512" height="512" rx="80" fill="url(#bgGradient)" opacity="0.3" filter="blur(20px)"/>
  
  <!-- Main icon - Building/Directory symbol -->
  <g transform="translate(128, 128)">
    <!-- Building base -->
    <rect x="50" y="100" width="156" height="156" rx="20" fill="url(#iconGradient)" opacity="0.9"/>
    
    <!-- Building details -->
    <rect x="70" y="120" width="20" height="20" rx="4" fill="#3b82f6" opacity="0.7"/>
    <rect x="100" y="120" width="20" height="20" rx="4" fill="#3b82f6" opacity="0.7"/>
    <rect x="130" y="120" width="20" height="20" rx="4" fill="#3b82f6" opacity="0.7"/>
    <rect x="160" y="120" width="20" height="20" rx="4" fill="#3b82f6" opacity="0.7"/>
    
    <rect x="70" y="150" width="20" height="20" rx="4" fill="#8b5cf6" opacity="0.7"/>
    <rect x="100" y="150" width="20" height="20" rx="4" fill="#8b5cf6" opacity="0.7"/>
    <rect x="130" y="150" width="20" height="20" rx="4" fill="#8b5cf6" opacity="0.7"/>
    <rect x="160" y="150" width="20" height="20" rx="4" fill="#8b5cf6" opacity="0.7"/>
    
    <rect x="70" y="180" width="20" height="20" rx="4" fill="#f59e0b" opacity="0.7"/>
    <rect x="100" y="180" width="20" height="20" rx="4" fill="#f59e0b" opacity="0.7"/>
    <rect x="130" y="180" width="20" height="20" rx="4" fill="#f59e0b" opacity="0.7"/>
    <rect x="160" y="180" width="20" height="20" rx="4" fill="#f59e0b" opacity="0.7"/>
    
    <rect x="70" y="210" width="20" height="20" rx="4" fill="#10b981" opacity="0.7"/>
    <rect x="100" y="210" width="20" height="20" rx="4" fill="#10b981" opacity="0.7"/>
    <rect x="130" y="210" width="20" height="20" rx="4" fill="#10b981" opacity="0.7"/>
    <rect x="160" y="210" width="20" height="20" rx="4" fill="#10b981" opacity="0.7"/>
    
    <!-- Premium star -->
    <path d="M128 40 L140 72 L176 72 L147 96 L159 128 L128 104 L97 128 L109 96 L80 72 L116 72 Z" fill="#fbbf24" stroke="#f59e0b" stroke-width="4"/>
  </g>
  
  <!-- Decorative elements -->
  <circle cx="80" cy="80" r="12" fill="#ffffff" opacity="0.3"/>
  <circle cx="432" cy="432" r="16" fill="#ffffff" opacity="0.2"/>
  <circle cx="432" cy="80" r="8" fill="#ffffff" opacity="0.4"/>
  <circle cx="80" cy="432" r="14" fill="#ffffff" opacity="0.25"/>
  
  <!-- Additional decorative rings -->
  <circle cx="256" cy="100" r="30" stroke="#ffffff" stroke-width="2" fill="none" opacity="0.2"/>
  <circle cx="400" cy="256" r="25" stroke="#ffffff" stroke-width="2" fill="none" opacity="0.15"/>
  <circle cx="112" cy="400" r="20" stroke="#ffffff" stroke-width="2" fill="none" opacity="0.2"/>
</svg>